<svg width="920" height="452" viewBox="0 0 920 452" fill="none" xmlns="http://www.w3.org/2000/svg">
<path d="M92.0392 7.92797C177.676 7.92797 211.807 44.202 215.841 78.3058H157.198C155.957 74.5854 153.475 69.6249 148.82 64.9743C137.34 53.193 117.172 47.3024 89.2466 47.3024C88.6261 47.3024 88.0055 47.3024 87.3849 47.3024C21.2953 47.3024 14.1588 90.7073 14.1588 109.619V113.03C14.1588 144.343 33.7065 177.517 88.6261 177.517C111.277 177.517 129.273 173.177 141.374 164.186C153.475 155.195 156.267 145.273 156.888 142.173L158.749 133.492H96.3831V108.379H216.151V213.791H180.779V158.915L167.437 179.687C166.506 181.237 143.235 217.201 81.1794 217.201H76.2149C34.0168 217.201 1.74763 205.73 -19.0411 183.098C-40.7608 159.535 -43.8636 130.392 -43.8636 115.2V108.069C-43.8636 93.1875 -40.7608 64.6643 -18.7309 41.7218C2.67847 19.3993 36.8093 7.92797 82.1102 7.92797H92.0392ZM82.1102 0.79718C-23.0748 0.79718 -51 61.254 -51 108.069V115.2C-51 164.186 -21.5234 224.332 76.2149 224.332H81.1794C148.2 224.332 173.643 183.408 173.643 183.408V220.922H223.288V101.248H89.2466V140.623H150.062C148.51 147.754 137.961 170.386 88.6261 170.386C37.4299 170.386 21.2953 139.693 21.2953 113.03V109.619C21.2953 82.3363 35.8784 54.4332 87.3849 54.4332C88.0055 54.4332 88.6261 54.4332 89.2466 54.4332C151.613 54.4332 151.303 85.4366 151.303 85.4366H223.288C223.288 51.9529 195.983 0.79718 92.0392 0.79718H82.1102Z" fill="url(#paint0_linear_26_18)"/>
<path d="M380.176 7.13079C495.911 7.13079 508.322 76.8886 508.322 106.962V115.953C508.322 130.835 505.219 159.358 483.5 181.99C461.78 205.243 427.029 216.714 380.176 216.714H367.145C320.602 216.714 285.851 205.243 264.131 181.99C242.412 159.048 239.309 130.835 239.309 115.953V106.962C239.309 76.8886 251.72 7.13079 367.145 7.13079H380.176ZM373.971 176.41C396.621 176.41 449.989 170.209 449.989 113.163V109.442C449.989 92.7004 444.715 78.4388 435.406 68.2076C422.374 54.2561 401.896 47.1253 373.971 47.1253C307.571 47.1253 297.642 86.1897 297.642 109.442V113.163C297.642 124.634 300.124 141.376 312.845 155.017C325.877 168.969 346.356 176.41 373.971 176.41ZM367.145 0C258.546 0 232.173 61.0769 232.173 106.962V115.953C232.173 161.218 258.546 224.155 367.145 224.155H380.176C489.085 224.155 515.458 161.218 515.458 115.953V106.962C515.458 61.0769 488.774 0 380.176 0H367.145ZM304.778 113.163V109.442C304.778 85.8796 315.948 54.2561 373.971 54.2561C431.683 54.2561 442.853 85.8796 442.853 109.442V113.163C442.853 136.725 431.683 169.279 373.971 169.279C316.879 169.279 304.778 136.725 304.778 113.163Z" fill="url(#paint1_linear_26_18)"/>
<path d="M586.059 6.90296L487.7 223.617H557.203L573.958 186.103H688.762L705.517 223.617H779.984L678.212 6.90296H586.059ZM673.868 13.7237L769.124 216.796H710.171L694.967 183.313L693.105 179.282H569.304L567.442 183.313L552.859 216.796H498.25L590.713 13.7237H673.868ZM584.507 145.178H678.212L673.558 135.567L637.255 54.3383L630.739 40.0767L624.534 54.3383L588.851 135.567L584.507 145.178ZM630.739 57.1286L667.352 138.358H595.367L630.739 57.1286Z" fill="url(#paint2_linear_26_18)"/>
<path d="M851.94 13.9896V174.278H983.499V216.442H796.711V13.9896H851.94ZM789.574 6.85879V223.573H990.635V167.147H859.077V6.85879H789.574Z" fill="url(#paint3_linear_26_18)"/>
<path d="M54.2334 235.006V395.294H185.792V437.459H-0.996445V235.006H54.2334ZM-8.13289 227.875V444.59H192.929V388.163H61.3699V227.875H-8.13289Z" fill="url(#paint4_linear_26_18)"/>
<path d="M405.002 235.006V270.35H265.996V316.235H405.933V353.75H265.996V401.495H406.864V437.459H211.387V235.006H405.002ZM204.251 227.875V444.59H414V394.364H273.133V360.88H413.069V309.104H273.133V277.481H412.138V227.875H204.251Z" fill="url(#paint5_linear_26_18)"/>
<path d="M679.024 235.006V437.769H621.932L498.441 307.554L486.34 294.533V437.459H432.661V235.006H493.476L613.244 362.74L625.656 375.762V235.006H679.024ZM618.519 227.875V357.78L496.579 227.875H425.525V444.59H493.476V312.205L618.829 444.9H686.471V227.875H618.519Z" fill="url(#paint6_linear_26_18)"/>
<path d="M833.042 235.006C918.99 235.006 935.745 262.289 939.468 278.411H872.758C864.38 270.66 849.797 266.94 828.388 266.94H820.941C780.915 266.94 760.747 275.311 760.747 291.743C760.747 313.445 786.19 316.855 808.219 317.475L851.969 318.406C888.582 319.336 913.404 325.226 927.988 336.388C939.778 345.068 945.053 357.16 945.053 375.762V379.172C945.053 409.556 932.331 444.59 834.283 444.59H813.184C770.365 444.59 739.337 437.149 720.72 423.197C710.171 415.136 703.655 404.905 701.173 392.504H766.332C774.089 402.425 793.636 411.106 824.044 411.106H830.56C854.451 411.106 885.789 408.006 885.789 381.343C885.789 358.4 861.898 354.68 836.145 354.06L793.326 353.129C732.201 351.269 702.414 332.357 702.414 295.463V292.983C702.414 274.691 708.619 261.979 721.341 252.678C738.406 240.897 767.573 235.006 808.84 235.006H833.042ZM808.84 227.875C716.376 227.875 695.277 257.019 695.277 292.983V295.463C695.277 328.947 717.307 358.09 793.016 360.26L835.834 361.19C871.827 362.12 878.653 369.871 878.653 381.343C878.653 392.194 873.068 403.975 830.87 403.975H824.044C793.326 403.975 774.089 394.054 770.365 385.373H693.105C695.277 412.966 712.963 451.72 813.184 451.72H834.283C936.986 451.72 952.189 412.656 952.189 379.172V375.762C952.189 338.868 932.952 313.755 851.969 311.275L808.219 310.345C775.33 309.414 767.883 301.664 767.883 291.743C767.883 281.201 783.707 274.071 820.941 274.071H828.388C853.21 274.071 864.38 279.341 869.655 285.542H947.846C945.053 257.329 924.575 227.875 833.042 227.875H808.84Z" fill="url(#paint7_linear_26_18)"/>
<defs>
<linearGradient id="paint0_linear_26_18" x1="514.74" y1="21.6138" x2="514.74" y2="468.95" gradientUnits="userSpaceOnUse">
<stop offset="0.463542" stop-color="#5603AD"/>
<stop offset="1" stop-color="#FDA3FF"/>
</linearGradient>
<linearGradient id="paint1_linear_26_18" x1="514.74" y1="21.6138" x2="514.74" y2="468.95" gradientUnits="userSpaceOnUse">
<stop offset="0.463542" stop-color="#5603AD"/>
<stop offset="1" stop-color="#FDA3FF"/>
</linearGradient>
<linearGradient id="paint2_linear_26_18" x1="514.74" y1="21.6138" x2="514.74" y2="468.95" gradientUnits="userSpaceOnUse">
<stop offset="0.463542" stop-color="#5603AD"/>
<stop offset="1" stop-color="#FDA3FF"/>
</linearGradient>
<linearGradient id="paint3_linear_26_18" x1="514.74" y1="21.6138" x2="514.74" y2="468.95" gradientUnits="userSpaceOnUse">
<stop offset="0.463542" stop-color="#5603AD"/>
<stop offset="1" stop-color="#FDA3FF"/>
</linearGradient>
<linearGradient id="paint4_linear_26_18" x1="514.74" y1="21.6138" x2="514.74" y2="468.95" gradientUnits="userSpaceOnUse">
<stop offset="0.463542" stop-color="#5603AD"/>
<stop offset="1" stop-color="#FDA3FF"/>
</linearGradient>
<linearGradient id="paint5_linear_26_18" x1="514.74" y1="21.6138" x2="514.74" y2="468.95" gradientUnits="userSpaceOnUse">
<stop offset="0.463542" stop-color="#5603AD"/>
<stop offset="1" stop-color="#FDA3FF"/>
</linearGradient>
<linearGradient id="paint6_linear_26_18" x1="514.74" y1="21.6138" x2="514.74" y2="468.95" gradientUnits="userSpaceOnUse">
<stop offset="0.463542" stop-color="#5603AD"/>
<stop offset="1" stop-color="#FDA3FF"/>
</linearGradient>
<linearGradient id="paint7_linear_26_18" x1="514.74" y1="21.6138" x2="514.74" y2="468.95" gradientUnits="userSpaceOnUse">
<stop offset="0.463542" stop-color="#5603AD"/>
<stop offset="1" stop-color="#FDA3FF"/>
</linearGradient>
</defs>
</svg>
