<svg width="250" height="119" viewBox="0 0 250 119" fill="none" xmlns="http://www.w3.org/2000/svg">
<rect width="250" height="118" fill="url(#paint0_linear_2_7)"/>
<rect x="14" y="14" width="222" height="104" fill="#F8F9FA"/>
<path d="M48.014 65.704H49.038C62.926 65.704 68.11 57.256 68.11 57.256V65H78.35V40.296H50.702V48.488H63.246C62.926 49.896 60.75 54.632 50.638 54.632C40.014 54.632 36.75 48.232 36.75 42.792V42.024C36.75 36.456 39.758 30.696 50.382 30.696C63.63 30.568 63.502 37.032 63.502 37.032H78.35C78.35 30.184 72.718 19.624 51.342 19.624H49.294C27.598 19.624 21.838 32.04 21.838 41.768V43.176C21.838 53.288 27.854 65.64 48.014 65.704ZM107.809 19.496H105.057C82.7205 19.496 77.2805 32.04 77.2805 41.576V43.368C77.2805 52.712 82.7205 65.64 105.057 65.64H107.809C130.209 65.64 135.649 52.712 135.649 43.368V41.576C135.649 32.04 130.145 19.496 107.809 19.496ZM120.673 42.024V42.792C120.673 47.72 118.369 54.376 106.465 54.376C94.7525 54.376 92.1925 47.72 92.1925 42.792V42.024C92.1925 37.16 94.4965 30.696 106.465 30.696C118.369 30.696 120.673 37.16 120.673 42.024ZM146.414 57.256H170.03L173.486 65.064H188.846L167.854 20.328H148.91L128.622 65.064H142.958L146.414 57.256ZM158.126 30.696L165.614 47.4H150.766L158.126 30.696ZM201.044 53.352V20.328H186.708V65H228.116V53.352H201.044ZM38.4247 101.352V68.328H24.0887V113H65.4967V101.352H38.4247ZM110.687 68.328H67.8712V113.064H111.071V102.632H82.0793V95.72H110.879V85.096H82.0793V78.568H110.687V68.328ZM129.668 85.736L155.524 113.064H169.412V68.328H155.46V95.144L130.372 68.328H115.716V113H129.668V85.736ZM205.728 84.776L196.768 84.584C189.92 84.392 188.448 82.792 188.448 80.744C188.448 78.568 191.712 77.032 199.328 77.032H200.864C206.048 77.032 208.352 78.184 209.376 79.464H225.504C224.928 73.64 220.704 67.56 201.824 67.56H196.896C177.824 67.56 173.472 73.576 173.472 80.936V81.512C173.472 88.424 178.016 94.376 193.632 94.824L202.464 95.016C209.824 95.208 211.232 96.808 211.232 99.176C211.232 101.416 210.08 103.848 201.376 103.848H200.032C193.632 103.848 189.728 101.864 188.896 100.008H173.024C173.472 105.704 177.12 113.704 197.792 113.704H202.08C223.264 113.704 226.4 105.704 226.4 98.792V98.024C226.4 90.472 222.432 85.224 205.728 84.776Z" fill="url(#paint1_linear_2_7)"/>
<defs>
<linearGradient id="paint0_linear_2_7" x1="125" y1="0" x2="125" y2="118" gradientUnits="userSpaceOnUse">
<stop stop-color="#5603AD"/>
<stop offset="1" stop-color="#8367C7"/>
</linearGradient>
<linearGradient id="paint1_linear_2_7" x1="124.5" y1="23" x2="124.5" y2="119" gradientUnits="userSpaceOnUse">
<stop stop-color="#5603AD"/>
<stop offset="1" stop-color="#8367C7"/>
</linearGradient>
</defs>
</svg>
