<svg width="269" height="128" viewBox="0 0 269 128" fill="none" xmlns="http://www.w3.org/2000/svg">
<g clip-path="url(#clip0_19_2)">
<path d="M51.6452 70.6732H52.7466C67.685 70.6732 73.2611 61.5863 73.2611 61.5863V69.9159H84.2755V43.3436H54.5365V52.1551H68.0292C67.685 53.6696 65.3444 58.7638 54.4677 58.7638C43.0402 58.7638 39.5293 51.8798 39.5293 46.0283V45.2023C39.5293 39.2131 42.7648 33.0175 54.1923 33.0175C68.4422 32.8798 68.3046 39.8327 68.3046 39.8327H84.2755C84.2755 32.4668 78.2176 21.1081 55.2249 21.1081H53.022C29.6851 21.1081 23.4895 34.4632 23.4895 44.9269V46.4414C23.4895 57.3182 29.9605 70.6043 51.6452 70.6732ZM115.963 20.9705H113.002C88.9766 20.9705 83.1251 34.4632 83.1251 44.7204V46.6479C83.1251 56.6986 88.9766 70.6043 113.002 70.6043H115.963C140.057 70.6043 145.908 56.6986 145.908 46.6479V44.7204C145.908 34.4632 139.988 20.9705 115.963 20.9705ZM129.799 45.2023V46.0283C129.799 51.329 127.321 58.4884 114.517 58.4884C101.919 58.4884 99.1649 51.329 99.1649 46.0283V45.2023C99.1649 39.9704 101.643 33.0175 114.517 33.0175C127.321 33.0175 129.799 39.9704 129.799 45.2023ZM157.487 61.5863H182.889L186.607 69.9848H203.128L180.549 21.8654H160.172L138.35 69.9848H153.77L157.487 61.5863ZM170.085 33.0175L178.139 50.9848H162.168L170.085 33.0175ZM216.249 57.387V21.8654H200.829V69.9159H245.368V57.387H216.249ZM41.3307 109.017V73.4956H25.9104V121.546H70.4501V109.017H41.3307ZM119.058 73.4956H73.0042V121.615H119.471V110.394H88.2869V102.959H119.265V91.5318H88.2869V84.5101H119.058V73.4956ZM139.475 92.2202L167.286 121.615H182.225V73.4956H167.217V102.34L140.232 73.4956H124.468V121.546H139.475V92.2202ZM221.287 91.1876L211.65 90.9811C204.284 90.7746 202.7 89.0536 202.7 86.8507C202.7 84.5101 206.211 82.8579 214.403 82.8579H216.055C221.631 82.8579 224.11 84.097 225.211 85.4739H242.559C241.939 79.2094 237.396 72.6695 217.088 72.6695H211.787C191.273 72.6695 186.592 79.1405 186.592 87.0572V87.6767C186.592 95.1115 191.479 101.514 208.276 101.996L217.776 102.202C225.693 102.409 227.207 104.13 227.207 106.677C227.207 109.086 225.968 111.702 216.606 111.702H215.16C208.276 111.702 204.077 109.568 203.182 107.572H186.11C186.592 113.698 190.516 122.303 212.751 122.303H217.363C240.149 122.303 243.523 113.698 243.523 106.264V105.438C243.523 97.3144 239.254 91.6695 221.287 91.1876Z" fill="url(#paint0_linear_19_2)"/>
<path d="M-1 0V127H14V15H253V127H268V0H-1Z" fill="url(#paint1_linear_19_2)"/>
</g>
<defs>
<linearGradient id="paint0_linear_19_2" x1="133.916" y1="24.7395" x2="133.916" y2="128" gradientUnits="userSpaceOnUse">
<stop offset="0.4375" stop-color="#5603AD"/>
<stop offset="1" stop-color="#FDA3FF"/>
</linearGradient>
<linearGradient id="paint1_linear_19_2" x1="133.5" y1="0" x2="133.5" y2="127" gradientUnits="userSpaceOnUse">
<stop offset="0.442708" stop-color="#5F16A8"/>
<stop offset="1" stop-color="#FDA3FF"/>
</linearGradient>
<clipPath id="clip0_19_2">
<rect width="268.908" height="128" fill="white"/>
</clipPath>
</defs>
</svg>
