<svg width="561" height="47" viewBox="0 0 561 47" fill="none" xmlns="http://www.w3.org/2000/svg">
<path d="M79.272 1.2L64.616 32.112L55.592 1.2H39.72L30.632 32.048L15.976 1.2H0.616L21.288 46H38.056L47.08 16.432L56.168 46H73.128L93.416 1.2H79.272ZM139.205 1.2H96.325V46.064H139.589V35.632H110.533V28.72H139.397V18.032H110.533V11.504H139.205V1.2ZM159.849 34.352V1.2H145.513V46H186.985V34.352H159.849ZM245.038 28.592H230.126C229.614 30.512 227.502 35.312 217.326 35.312C206.702 35.312 203.885 28.592 203.885 23.728V22.96C203.885 17.776 206.638 11.696 217.262 11.696C226.862 11.696 229.358 15.92 229.998 17.968H245.038C244.782 9.968 239.278 0.431999 218.606 0.431999H215.854C193.966 0.431999 188.91 13.424 188.91 22.512V24.304C188.91 33.328 193.966 46.704 215.854 46.704H218.606C239.726 46.704 244.974 36.208 245.038 28.592ZM278.499 0.431999H275.811C253.411 0.431999 247.971 13.04 247.971 22.512V24.304C247.971 33.712 253.411 46.704 275.811 46.704H278.499C300.963 46.704 306.403 33.712 306.403 24.304V22.512C306.403 13.04 300.963 0.431999 278.499 0.431999ZM291.427 23.024V23.792C291.427 28.656 289.123 35.376 277.219 35.376C265.443 35.376 262.947 28.656 262.947 23.792V23.024C262.947 18.16 265.251 11.632 277.219 11.632C289.123 11.632 291.427 18.16 291.427 23.024ZM311.075 1.2V46H324.899V17.456L338.275 46H348.259L361.699 17.456V46.064H375.779V1.2H357.219L343.715 29.104L330.531 1.2H311.075ZM425.143 1.2H382.263V46.064H425.527V35.632H396.471V28.72H425.335V18.032H396.471V11.504H425.143V1.2ZM466.653 12.528V46.064H480.989V12.528H500.573V1.2H447.133V12.528H466.653ZM532.874 0.431999H530.186C507.786 0.431999 502.346 13.04 502.346 22.512V24.304C502.346 33.712 507.786 46.704 530.186 46.704H532.874C555.338 46.704 560.778 33.712 560.778 24.304V22.512C560.778 13.04 555.338 0.431999 532.874 0.431999ZM545.802 23.024V23.792C545.802 28.656 543.498 35.376 531.594 35.376C519.818 35.376 517.322 28.656 517.322 23.792V23.024C517.322 18.16 519.626 11.632 531.594 11.632C543.498 11.632 545.802 18.16 545.802 23.024Z" fill="black"/>
</svg>
